# Blender v2.79 (sub 0) OBJ File: 'button-base.blend'
# www.blender.org
mtllib button-base.mtl
o Cube
v 1.000000 -0.141801 -1.000000
v 1.000000 -0.141801 1.000000
v -1.000000 -0.141801 1.000000
v -1.000000 -0.141801 -1.000000
v 1.000000 -0.141801 -0.333333
v 1.000000 -0.141801 0.333333
v 0.333333 -0.141801 -1.000000
v -0.333333 -0.141801 -1.000000
v 0.666667 0.258199 -0.666667
v 0.333333 -0.141801 1.000000
v -0.333333 -0.141801 1.000000
v -1.000000 -0.141801 0.333333
v -1.000000 -0.141801 -0.333334
v 0.666667 0.258199 0.666667
v -0.666667 0.258199 0.666667
v -0.666666 0.258199 -0.666667
v 0.000000 0.258199 -0.666667
v -0.666667 0.258199 -0.000000
v -0.000000 0.258199 0.666667
v 0.666667 0.258199 0.000000
v 0.666667 0.258199 0.000000
v -0.000000 0.258199 0.666667
v -0.666667 0.258199 -0.000000
v 0.000000 0.258199 -0.666667
v 0.666667 0.258199 0.333333
v -0.333333 0.258199 0.666667
v -0.666667 0.258199 -0.333333
v 0.333333 0.258199 -0.666667
v 0.666667 0.258199 -0.333333
v 0.333333 0.258199 0.666667
v -0.666667 0.258199 0.333333
v -0.333333 0.258199 -0.666667
v -0.333333 0.258199 -0.000000
v 0.333333 0.258199 0.000000
v 0.000000 0.258199 -0.333333
v -0.000000 0.258199 0.333333
v 0.333333 0.258199 0.333333
v 0.333333 0.258199 -0.333333
v -0.333333 0.258199 -0.333333
v -0.333333 0.258199 0.333333
vn 0.7682 0.6402 0.0000
vn 0.0000 0.6402 0.7682
vn -0.7682 0.6402 -0.0000
vn 0.0000 0.6402 -0.7682
vn 0.0000 -1.0000 0.0000
usemtl Material
s off
f 1//1 9//1 5//1
f 2//2 14//2 10//2
f 3//3 15//3 12//3
f 16//4 8//4 4//4
f 16//4 17//4 8//4
f 17//4 7//4 8//4
f 17//4 9//4 7//4
f 9//4 1//4 7//4
f 13//3 16//3 4//3
f 12//3 18//3 13//3
f 13//3 18//3 16//3
f 12//3 15//3 18//3
f 11//2 15//2 3//2
f 10//2 19//2 11//2
f 11//2 19//2 15//2
f 10//2 14//2 19//2
f 6//1 14//1 2//1
f 5//1 20//1 6//1
f 6//1 20//1 14//1
f 5//1 9//1 20//1
f 2//5 3//5 4//5 1//5
f 40//5 26//5 15//5 31//5
f 39//5 33//5 23//5 27//5
f 37//5 30//5 22//5 36//5
f 21//5 25//5 37//5 34//5
f 25//5 14//5 30//5 37//5
f 28//5 38//5 35//5 24//5
f 9//5 29//5 38//5 28//5
f 29//5 21//5 34//5 38//5
f 32//5 39//5 27//5 16//5
f 24//5 35//5 39//5 32//5
f 33//5 40//5 31//5 23//5
f 36//5 22//5 26//5 40//5
